<?xml version="1.0" encoding="utf-8"?>
<!-- Generator: Adobe Illustrator 17.1.0, SVG Export Plug-In . SVG Version: 6.00 Build 0)  -->
<!DOCTYPE svg PUBLIC "-//W3C//DTD SVG 1.1//EN" "http://www.w3.org/Graphics/SVG/1.1/DTD/svg11.dtd">
<svg version="1.1" id="Layer_1" xmlns="http://www.w3.org/2000/svg" xmlns:xlink="http://www.w3.org/1999/xlink" x="0px" y="0px"
	 viewBox="0 0 237.377 99.162" enable-background="new 0 0 237.377 99.162" xml:space="preserve">
<g>
	<path fill="#010101" d="M16.002,7.869c4.878,0,7.318,2.033,7.318,4.878c0,3.63-4.356,6.998-11.092,6.998
		c-3.107,0-6.417-0.987-8.363-2.962C3.864,12.022,9.411,7.869,16.002,7.869z M41.759,1.742c-2.962,2.004-5.14,5.053-6.94,8.102
		c-2.846,4.82-4.472,8.769-7.724,11.906c-0.784,0.755-1.626,1.51-2.642,2.149c-0.116,0.087,0,0.348,0.203,0.261
		c0.61-0.29,1.132-0.668,1.655-1.045c5.256-3.775,8.827-8.247,12.98-12.428c3.136-3.165,7.695-7.434,11.673-9.118
		C47.189,4.21,42.978,7.637,39.9,11.354c-2.381,2.875-6.272,7.579-6.272,10.918c0,1.365,0.61,1.916,1.539,1.916
		c1.829,0,4.472-3.252,6.911-6.214c0.116-0.145-0.087-0.348-0.203-0.203c-2.613,3.165-5.053,6.069-6.65,6.069
		c-0.639,0-0.958-0.261-0.958-1.045c0-2.294,3.949-7.695,6.388-10.715c3.31-4.094,6.795-7.956,11.238-10.744
		c0.232-0.145,0.029-0.407-0.145-0.348c-4.123,1.278-9.815,6.475-12.69,9.408c-4.152,4.21-7.724,8.595-11.993,11.789
		c3.368-3.165,6.359-8.102,8.595-11.847c1.887-3.194,3.92-7.201,6.882-8.711c0.174-0.087,0.058-0.348-0.145-0.319
		C38.158,2.12,31.16,6.098,26.485,12.69c-3.31,4.646-6.882,11.092-13.851,11.092c-4.036,0-8.363-2.381-8.74-6.504
		c2.12,2.033,5.517,3.02,8.74,3.02c6.563,0,10.976-3.485,10.976-7.434c0-3.31-2.73-5.575-8.334-5.575
		c-6.853,0-11.644,4.327-11.702,9.176c-0.929-1.103-1.51-2.439-1.51-4.094c0-4.617,4.995-8.566,12.312-8.566
		c6.127,0,10.134,2.584,12.457,6.621c0.087,0.145,0.232,0.087,0.145-0.087c-2.701-4.791-7.318-7.143-13.27-7.143
		c-7.405,0-11.935,4.21-11.935,9.147c0,1.887,0.668,3.339,1.8,4.617c0.261,4.646,4.878,7.114,9.234,7.114
		c6.911,0,14.403-5.895,18.12-12.051C33.512,7.695,36.735,2.933,41.759,1.742z"/>
	<path fill="#010101" d="M45.534,23.782c2.149,0,5.779-4.152,7.172-5.808c0.116-0.145-0.087-0.348-0.203-0.203
		c-1.481,1.771-5.024,5.662-6.911,5.662c-0.319,0-0.465-0.087-0.465-0.407c0-0.348,0.232-0.784,1.103-1.829l5.111-6.156
		c0.116-0.145-0.058-0.261-0.9-0.261c-0.784,0-0.9,0.116-1.016,0.261l-0.377,0.465c0.058-0.639-0.174-0.958-0.9-0.958
		c-1.887,0-5.14,1.713-7.114,4.152c-0.929,1.103-1.51,2.439-1.51,3.543c0,0.813,0.29,1.539,1.191,1.539
		c1.452,0,3.252-1.742,4.298-2.904c-0.348,0.668-0.552,1.278-0.552,1.887C44.459,23.434,44.837,23.782,45.534,23.782z M40.22,22.998
		c0-0.61,0.377-1.162,2.091-3.281c2.207-2.671,4.21-4.878,5.837-4.878c0.436,0,0.581,0.145,0.581,0.494
		c0,0.581-0.407,1.074-1.045,1.858l-1.394,1.713c-1.394,1.771-3.92,4.588-5.546,4.588C40.336,23.492,40.22,23.288,40.22,22.998z"/>
	<path fill="#010101" d="M55.784,13.096c0-0.232-0.116-0.348-0.319-0.348c-0.552,0-1.22,0.987-1.22,1.626
		c0,0.348,0.116,0.552,0.29,0.668c-0.639,1.016-1.307,1.887-2.033,2.73c-0.145,0.174,0.116,0.319,0.203,0.203
		c0.436-0.494,1.423-1.713,2.149-2.846c0.639,0,0.9-0.232,1.365-0.232c0.261,0,0.377,0.116,0.377,0.377
		c0,1.597-4.21,4.007-4.21,6.824c0,1.133,0.581,1.684,1.307,1.684c1.858,0,5.343-4.094,6.766-5.808
		c0.116-0.145-0.087-0.348-0.203-0.203c-1.51,1.829-4.907,5.662-6.446,5.662c-0.407,0-0.61-0.203-0.61-0.639
		c0-1.829,4.269-4.385,4.269-6.969c0-0.784-0.29-1.278-1.074-1.278c-0.523,0-0.755,0.232-1.307,0.232
		C55.494,14.17,55.784,13.532,55.784,13.096z"/>
	<path fill="#010101" d="M51.051,34.874c-0.407,0-0.639-0.174-0.639-0.668c0-2.091,4.617-6.156,8.944-8.305l-3.165,4.21
		C54.361,32.551,52.59,34.874,51.051,34.874z M49.977,33.887c0,0.842,0.319,1.278,1.045,1.278c2.178,0,4.791-3.165,9.815-9.321
		l0.523-0.639c4.181-1.887,6.824-3.862,9.553-7.23c0.116-0.145-0.087-0.348-0.203-0.203c-2.73,3.339-5.169,5.198-8.973,6.94
		l7.753-9.67c0.116-0.145-0.058-0.261-0.929-0.261c-0.842,0-0.987,0.116-1.074,0.261l-2.381,3.194
		c-2.062,2.759-4.791,5.198-6.156,5.198c-0.319,0-0.494-0.116-0.494-0.465c0-0.465,0.29-0.929,1.975-2.991l3.978-4.936
		c0.116-0.145-0.029-0.261-0.9-0.261c-0.842,0-0.958,0.116-1.074,0.261l-3.223,4.007c-0.958,1.22-1.568,2.323-1.568,3.426
		c0,0.784,0.377,1.307,1.191,1.307c1.162,0,2.73-1.249,3.92-2.41l-3.049,4.036C54.39,27.905,49.977,30.664,49.977,33.887z"/>
	<path fill="#010101" d="M93.708,10.047c0,0.174-0.436,0.29-1.249,0.29c-0.494,0-1.655-0.116-2.526-0.436
		c0.407-0.087,1.423-0.174,2.178-0.174C93.04,9.728,93.708,9.815,93.708,10.047z M80.786,23.985c2.41,0,5.024-0.755,7.289-2.062
		c-1.394,2.759-3.833,5.024-6.214,5.024c-1.771,0-2.555-1.336-2.555-3.136C79.653,23.927,80.263,23.985,80.786,23.985z
		 M89.991,4.762c0.726-0.726,1.539-1.394,2.468-1.917c0.61,0.261,1.162,0.552,1.713,0.842c0.319,0.174,0.436,0.029,0.145-0.145
		c-0.494-0.29-1.045-0.61-1.568-0.871c1.307-0.668,2.817-1.132,4.327-1.132c2.178,0,3.339,0.726,3.339,1.655
		c0,2.352-6.475,4.472-12.109,5.285C87.9,7.259,88.974,5.749,89.991,4.762z M83.835,8.857c-5.488,0-8.973-0.9-8.973-3.746
		c0-3.339,5.837-3.92,8.711-3.92c2.962,0,5.14,0.319,7.027,0.929c-2.41,0.726-4.356,1.975-4.356,4.007
		c0,1.016,0.407,1.829,1.074,2.497C86.012,8.769,84.851,8.857,83.835,8.857z M89.526,17.248c0-0.261-0.232-0.261-0.232,0
		c0,1.133-0.261,2.352-0.726,3.543c-2.323,1.684-5.111,2.933-7.695,2.933c-0.552,0-1.074-0.087-1.539-0.232
		c0.436-4.588,7.347-11.528,12.022-11.528c1.394,0,2.265,0.494,2.265,1.887c0,1.887-1.975,4.588-4.704,6.679
		C89.294,19.542,89.526,18.294,89.526,17.248z M88.394,8.74c5.72-0.842,12.312-2.991,12.312-5.546c0-1.103-1.336-1.946-3.891-1.946
		c-1.51,0-3.659,0.203-5.633,0.697c-2.701-1.162-5.401-1.713-8.102-1.713c-3.543,0-8.508,1.278-8.508,4.907
		c0,3.514,5.053,3.978,9.292,3.978c1.074,0,2.323-0.087,3.717-0.261c0.348,0.319,0.755,0.581,1.162,0.784
		c-7.143,0.639-13.59,3.397-13.59,8.45c0,2.991,1.51,4.907,3.688,5.604c0,2.207,1.191,3.514,2.991,3.514
		c2.584,0,5.14-2.41,6.592-5.459c3.165-1.887,5.575-4.733,5.575-7.753c0-1.655-1.045-2.323-2.73-2.323
		c-5.285,0-12.167,5.285-12.399,11.615c-0.871-0.465-1.481-1.249-1.481-2.497c0-3.688,5.169-9.553,12.08-10.831
		c0.929,0.407,2.091,0.61,2.875,0.61c1.045,0,1.655-0.174,1.655-0.523c0-0.436-0.871-0.552-2.004-0.552
		c-0.9,0-1.916,0.029-2.7,0.116C88.916,9.379,88.597,9.089,88.394,8.74z"/>
	<path fill="#010101" d="M107.878,4.501c0.29,0,0.407,0.116,0.407,0.377c0,1.568-4.094,5.024-7.84,7.927
		C104.393,7.376,106.542,4.501,107.878,4.501z M109.01,4.995c0-0.523-0.232-0.842-0.813-0.842c-2.236,0-6.33,4.791-10.657,10.163
		c-2.381,2.962-4.53,5.808-4.53,8.363c0,0.552,0.203,1.103,0.987,1.103c2.12,0,5.691-4.21,7.056-5.808
		c0.116-0.145-0.087-0.348-0.203-0.203c-1.452,1.713-4.936,5.662-6.766,5.662c-0.407,0-0.523-0.174-0.523-0.465
		c0-0.639,0.319-1.191,1.539-2.846l4.733-6.504C104.132,10.308,109.01,7.347,109.01,4.995z"/>
	<path fill="#010101" d="M106.484,10.715c0,0.494,0.29,0.726,0.726,0.726c0.784,0,1.336-0.697,1.336-1.307
		c0-0.494-0.29-0.726-0.726-0.726C107.036,9.408,106.484,10.105,106.484,10.715z M99.544,23.782c2.12,0,5.691-4.21,7.056-5.808
		c0.116-0.145-0.087-0.348-0.203-0.203c-1.452,1.713-4.936,5.662-6.766,5.662c-0.29,0-0.494-0.087-0.494-0.465
		c0-0.581,0.465-1.22,1.887-2.991l4.007-4.936c0.116-0.145-0.029-0.261-0.9-0.261c-0.842,0-0.958,0.116-1.074,0.261l-3.368,4.152
		c-0.871,1.074-1.336,2.207-1.336,3.194C98.354,23.201,98.702,23.782,99.544,23.782z"/>
	<path fill="#010101" d="M104.945,25.96c-0.377,0.842-1.074,1.829-2.352,3.426c-2.381,2.933-4.907,5.488-6.737,5.488
		c-0.465,0-0.784-0.174-0.784-0.726C95.072,31.825,100.56,28.225,104.945,25.96z M104.539,23.085
		c-0.377-0.174-0.697-0.232-1.191-0.232c-0.552,0-1.045,0.174-1.045,0.523c0,0.319,0.319,0.406,0.697,0.406
		c0.465,0,0.9-0.116,1.539-0.406c0.407,0.203,0.697,0.581,0.697,1.307c0,0.261-0.029,0.523-0.145,0.871
		c-5.72,2.788-10.425,5.024-10.425,8.334c0,0.958,0.523,1.278,1.423,1.278c2.352,0,5.198-2.12,6.969-4.385
		c1.278-1.626,2.178-3.514,2.468-5.111c4.704-2.236,6.94-4.356,9.728-7.695c0.116-0.145-0.087-0.348-0.203-0.203
		c-2.875,3.485-5.198,5.488-9.495,7.55c0.029-0.203,0.029-0.29,0.029-0.407c0-0.726-0.232-1.394-0.755-1.684
		c2.613-1.249,7.521-3.485,7.521-7.056c0-0.929-0.319-1.626-1.51-1.626c-1.016,0-2.381,0.755-4.443,3.223
		c-0.116,0.145,0.058,0.348,0.203,0.203c2.265-2.73,3.455-3.136,4.21-3.136c0.348,0,0.552,0.145,0.552,0.494
		c0,0.639-0.523,1.655-1.597,2.991C108.139,20.355,106.775,21.982,104.539,23.085z"/>
	<path fill="#010101" d="M118.709,23.782c2.149,0,5.779-4.152,7.172-5.808c0.116-0.145-0.087-0.348-0.203-0.203
		c-1.481,1.771-5.024,5.662-6.911,5.662c-0.319,0-0.465-0.087-0.465-0.407c0-0.348,0.232-0.784,1.103-1.829l5.111-6.156
		c0.116-0.145-0.058-0.261-0.9-0.261c-0.784,0-0.9,0.116-1.016,0.261l-0.377,0.465c0.058-0.639-0.174-0.958-0.9-0.958
		c-1.887,0-5.14,1.713-7.114,4.152c-0.929,1.103-1.51,2.439-1.51,3.543c0,0.813,0.29,1.539,1.191,1.539
		c1.452,0,3.252-1.742,4.298-2.904c-0.348,0.668-0.552,1.278-0.552,1.887C117.635,23.434,118.012,23.782,118.709,23.782z
		 M113.395,22.998c0-0.61,0.377-1.162,2.091-3.281c2.207-2.671,4.21-4.878,5.837-4.878c0.436,0,0.581,0.145,0.581,0.494
		c0,0.581-0.406,1.074-1.045,1.858l-1.394,1.713c-1.394,1.771-3.92,4.588-5.546,4.588C113.511,23.492,113.395,23.288,113.395,22.998
		z"/>
	<path fill="#010101" d="M138.774,4.53c0.29,0,0.407,0.116,0.407,0.377c0,1.626-4.385,5.343-8.276,8.334
		C135.057,7.521,137.322,4.53,138.774,4.53z M130.324,19.659c1.626-1.858,2.904-3.833,2.904-4.762c0-0.232-0.087-0.348-0.319-0.348
		c-1.045,0-3.194,2.875-3.194,4.501c0,0.087,0,0.232,0.029,0.319c-1.074,1.394-3.252,4.065-4.82,4.065
		c-0.465,0-0.581-0.203-0.581-0.523c0-0.61,0.29-1.045,1.539-2.788l4.385-6.011c4.414-3.485,9.641-6.679,9.641-9.06
		c0-0.552-0.261-0.9-0.842-0.9c-2.207,0-6.214,4.733-10.744,10.163c-2.788,3.339-4.588,5.982-4.588,8.16
		c0,0.668,0.232,1.307,1.074,1.307c1.278,0,3.368-1.713,5.14-3.688c0.203,0.465,0.668,0.755,1.278,0.755
		c1.103,0,2.265-0.929,3.862-2.875c0.116-0.145-0.087-0.348-0.203-0.203c-1.51,1.887-2.701,2.73-3.572,2.73
		C130.818,20.501,130.411,20.21,130.324,19.659z"/>
	<path fill="#010101" d="M140.458,14.838c0.232,0,0.348,0.087,0.348,0.319c0,1.103-2.062,2.671-4.762,3.746
		C138.397,16,139.5,14.838,140.458,14.838z M141.62,15.477c0-0.639-0.377-0.929-1.161-0.929c-1.946,0-4.472,1.829-5.895,3.601
		c-1.278,1.568-1.655,3.049-1.655,3.92c0,1.016,0.465,1.713,1.771,1.713c2.73,0,6.098-3.252,8.218-5.808
		c0.116-0.145-0.087-0.348-0.203-0.203c-1.8,2.178-5.314,5.662-7.782,5.662c-0.755,0-1.045-0.232-1.045-0.871
		c0-0.494,0.319-1.307,1.829-3.194C138.019,18.352,141.62,17.219,141.62,15.477z"/>
	<path fill="#010101" d="M143.101,15.042c0,0.058,0.058,0.116,0.377,0.116h1.365l-2.846,3.485c-1.365,1.713-1.771,2.642-1.771,3.659
		c0,0.987,0.552,1.481,1.307,1.481c2.236,0,5.691-3.92,7.259-5.808c0.116-0.145-0.087-0.348-0.203-0.203
		c-1.539,1.858-4.965,5.662-6.969,5.662c-0.377,0-0.552-0.145-0.552-0.523c0-0.639,0.232-1.016,2.062-3.252l3.63-4.501
		c0.61,0,1.045,0.029,1.8,0.029c0.203,0,0.319-0.058,0.319-0.203c0-0.116-0.116-0.145-0.203-0.145c-0.61,0-1.045,0.029-1.655,0.029
		l3.165-3.92c0.145-0.203,0.087-0.406-0.174-0.377l-1.045,0.087c-0.407,0.029-0.61,0.145-0.813,0.407l-3.107,3.833h-1.51
		C143.188,14.896,143.101,14.954,143.101,15.042z"/>
	<path fill="#010101" d="M161.482,4.501c0.29,0,0.407,0.116,0.407,0.377c0,1.539-4.065,5.082-7.811,8.014
		C158.433,7.172,159.856,4.501,161.482,4.501z M151.551,23.782c2.091,0,5.604-4.181,6.969-5.808
		c0.116-0.145-0.087-0.348-0.203-0.203c-1.423,1.713-4.878,5.662-6.679,5.662c-0.378,0-0.581-0.087-0.581-0.552
		c0-1.103,2.004-2.671,2.904-3.601c0.784-0.784,2.004-2.207,2.004-3.397c0-0.784-0.377-1.336-1.365-1.336
		c-0.668,0-1.655,0.348-3.281,1.975l2.062-2.701c4.298-3.397,9.234-6.446,9.234-8.769c0-0.552-0.29-0.9-0.958-0.9
		c-1.684,0-3.978,2.265-6.505,5.401l-10.976,13.735c-0.116,0.145,0.029,0.261,0.9,0.261c0.842,0,0.958-0.116,1.074-0.261l2.73-3.572
		c1.597-2.091,4.181-4.849,5.662-4.849c0.348,0,0.523,0.145,0.523,0.494c0,0.929-1.626,2.294-2.207,2.875
		c-1.103,1.074-2.497,2.671-2.497,4.239C150.36,23.288,150.738,23.782,151.551,23.782z"/>
	<path fill="#010101" d="M189.765,2.73c0,3.281-3.717,7.463-6.417,7.463c-0.987,0-1.51-0.523-1.51-1.539
		c0-3.339,3.63-5.808,7.782-6.911C189.736,2.033,189.765,2.381,189.765,2.73z M194.236,1.132c1.568,0,3.165,0.232,4.298,0.842
		c-5.082,1.655-9.234,4.82-12.748,9.089c-4.036,4.878-7.201,12.631-14.809,12.631c-4.152,0-8.014-2.642-8.014-7.114
		c0-5.953,5.662-9.495,10.918-9.495c3.397,0,7.172,1.365,7.172,4.936c0,4.646-5.662,7.782-9.699,7.782
		c-2.381,0-5.198-0.871-5.198-3.804c0-3.514,4.123-6.04,8.247-6.04c1.946,0,3.397,0.407,4.675,1.684
		c0.145,0.145,0.232,0,0.087-0.145c-1.539-1.713-3.659-2.12-5.779-2.12c-3.746,0-7.521,2.526-7.521,6.65
		c0,2.642,2.381,4.036,5.459,4.036c4.53,0,10.018-3.339,10.018-8.072c0-3.891-4.327-5.314-7.434-5.314
		c-6.766,0-11.238,4.559-11.238,9.931c0,4.443,3.862,7.376,8.392,7.376c6.417,0,13.619-5.285,17.452-11.412
		c3.252-5.198,5.982-8.944,10.337-10.396c0.755,0.523,1.249,1.307,1.249,2.381c0,2.991-3.63,6.185-7.376,6.185
		c-0.9,0-1.568-0.203-2.033-0.436c-0.319-0.174-0.494,0.058-0.174,0.203c0.581,0.29,1.22,0.523,2.439,0.523
		c3.775,0,7.985-2.062,7.985-5.837c0-1.452-0.61-2.497-1.597-3.165c0.668-0.203,1.481-0.348,2.294-0.436
		c0.232-0.029,0.319-0.116,0.319-0.232c0-0.174-0.145-0.232-0.378-0.174c-0.9,0.174-1.829,0.406-2.584,0.639
		c-1.162-0.697-2.904-0.987-4.791-0.987c-1.481,0-2.962,0.203-4.414,0.552C189.358,0.494,188.429,0,186.977,0
		c-3.426,0-6.534,3.02-7.23,6.127c-0.087,0.348,0.087,0.436,0.174,0.058c0.436-1.916,2.933-5.924,7.056-5.924
		c1.394,0,2.178,0.465,2.526,1.191c-4.327,1.162-7.956,3.833-7.956,7.172c0,1.249,0.726,1.829,1.713,1.829
		c3.165,0,6.795-4.501,6.795-7.666c0-0.407-0.029-0.755-0.145-1.103C191.246,1.336,192.814,1.132,194.236,1.132z"/>
	<path fill="#010101" d="M192.001,23.782c2.149,0,5.779-4.152,7.172-5.808c0.116-0.145-0.087-0.348-0.203-0.203
		c-1.481,1.771-5.024,5.662-6.911,5.662c-0.319,0-0.465-0.087-0.465-0.407c0-0.348,0.232-0.784,1.103-1.829l5.111-6.156
		c0.116-0.145-0.058-0.261-0.9-0.261c-0.784,0-0.9,0.116-1.016,0.261l-0.377,0.465c0.058-0.639-0.174-0.958-0.9-0.958
		c-1.887,0-5.14,1.713-7.114,4.152c-0.929,1.103-1.51,2.439-1.51,3.543c0,0.813,0.29,1.539,1.191,1.539
		c1.452,0,3.252-1.742,4.298-2.904c-0.348,0.668-0.552,1.278-0.552,1.887C190.926,23.434,191.304,23.782,192.001,23.782z
		 M186.687,22.998c0-0.61,0.378-1.162,2.091-3.281c2.207-2.671,4.21-4.878,5.837-4.878c0.436,0,0.581,0.145,0.581,0.494
		c0,0.581-0.407,1.074-1.045,1.858l-1.394,1.713c-1.394,1.771-3.92,4.588-5.546,4.588C186.803,23.492,186.687,23.288,186.687,22.998
		z"/>
	<path fill="#010101" d="M199.086,23.782c2.642,0,5.953-3.514,7.869-5.808c0.116-0.145-0.087-0.348-0.203-0.203
		c-1.742,2.149-5.169,5.662-7.434,5.662c-0.842,0-1.249-0.29-1.249-1.016c0-0.697,0.319-1.423,2.149-3.659
		c2.352-2.846,3.397-3.92,4.53-3.92c0.232,0,0.348,0.058,0.348,0.261c0,0.581-1.626,0.668-1.626,1.742
		c0,0.406,0.29,0.639,0.668,0.639c0.813,0,1.568-0.871,1.568-1.916c0-0.784-0.377-1.016-1.016-1.016
		c-1.626,0-4.617,1.829-6.098,3.659c-0.929,1.132-1.452,2.352-1.452,3.456C197.14,22.998,197.808,23.782,199.086,23.782z"/>
	<path fill="#010101" d="M219.674,4.501c0.319,0,0.436,0.116,0.436,0.377c0,1.597-4.21,5.169-8.014,8.189
		C216.45,7.288,218.048,4.501,219.674,4.501z M202.309,23.288c-0.116,0.145,0.029,0.261,0.9,0.261c0.842,0,0.958-0.116,1.074-0.261
		l3.02-3.949c2.236-2.904,4.414-4.327,5.488-4.327c0.29,0,0.436,0.145,0.436,0.494c0,1.162-1.568,2.904-3.02,3.339
		c-0.319-0.116-0.697-0.174-1.191-0.174c-0.61,0-0.9,0.145-0.9,0.348c0,0.261,0.319,0.319,0.784,0.319
		c0.378,0,0.871-0.058,1.423-0.203c0.029,0.029,0.029,0.058,0.029,0.087c0,0.581-2.294,1.481-2.294,3.339
		c0,0.523,0.203,1.22,1.191,1.22c2.12,0,5.691-4.21,7.056-5.808c0.116-0.145-0.087-0.348-0.203-0.203
		c-1.452,1.713-4.936,5.662-6.766,5.662c-0.261,0-0.407-0.087-0.407-0.348c0-0.929,2.178-1.568,2.178-3.078
		c0-0.29-0.058-0.697-0.465-0.958c1.858-0.494,4.036-1.713,4.036-3.281c0-0.61-0.377-1.22-1.336-1.22
		c-1.22,0-2.817,0.987-4.269,2.468l2.294-3.02c4.356-3.485,9.466-6.592,9.466-8.944c0-0.552-0.29-0.9-0.958-0.9
		c-1.713,0-4.065,2.265-6.592,5.401L202.309,23.288z"/>
	<path fill="#010101" d="M221.677,14.838c0.232,0,0.348,0.087,0.348,0.319c0,1.103-2.062,2.671-4.762,3.746
		C219.616,16,220.719,14.838,221.677,14.838z M222.839,15.477c0-0.639-0.377-0.929-1.161-0.929c-1.946,0-4.472,1.829-5.895,3.601
		c-1.278,1.568-1.655,3.049-1.655,3.92c0,1.016,0.465,1.713,1.771,1.713c2.73,0,6.098-3.252,8.218-5.808
		c0.116-0.145-0.087-0.348-0.203-0.203c-1.8,2.178-5.314,5.662-7.782,5.662c-0.755,0-1.045-0.232-1.045-0.871
		c0-0.494,0.319-1.307,1.829-3.194C219.238,18.352,222.839,17.219,222.839,15.477z"/>
	<path fill="#010101" d="M224.32,15.042c0,0.058,0.058,0.116,0.377,0.116h1.365l-2.846,3.485c-1.365,1.713-1.771,2.642-1.771,3.659
		c0,0.987,0.552,1.481,1.307,1.481c2.236,0,5.691-3.92,7.259-5.808c0.116-0.145-0.087-0.348-0.203-0.203
		c-1.539,1.858-4.965,5.662-6.969,5.662c-0.377,0-0.552-0.145-0.552-0.523c0-0.639,0.232-1.016,2.062-3.252l3.63-4.501
		c0.61,0,1.045,0.029,1.8,0.029c0.203,0,0.319-0.058,0.319-0.203c0-0.116-0.116-0.145-0.203-0.145c-0.61,0-1.045,0.029-1.655,0.029
		l3.165-3.92c0.145-0.203,0.087-0.406-0.174-0.377l-1.045,0.087c-0.407,0.029-0.61,0.145-0.813,0.407l-3.107,3.833h-1.51
		C224.407,14.896,224.32,14.954,224.32,15.042z"/>
	<path fill="#010101" d="M230.214,15.042c0,0.058,0.058,0.116,0.378,0.116h1.365l-2.846,3.485c-1.365,1.713-1.771,2.642-1.771,3.659
		c0,0.987,0.552,1.481,1.307,1.481c2.236,0,5.691-3.92,7.259-5.808c0.116-0.145-0.087-0.348-0.203-0.203
		c-1.539,1.858-4.965,5.662-6.969,5.662c-0.378,0-0.552-0.145-0.552-0.523c0-0.639,0.232-1.016,2.062-3.252l3.63-4.501
		c0.61,0,1.045,0.029,1.8,0.029c0.203,0,0.319-0.058,0.319-0.203c0-0.116-0.116-0.145-0.203-0.145c-0.61,0-1.045,0.029-1.655,0.029
		l3.165-3.92c0.145-0.203,0.087-0.406-0.174-0.377l-1.045,0.087c-0.407,0.029-0.61,0.145-0.813,0.407l-3.107,3.833h-1.51
		C230.301,14.896,230.214,14.954,230.214,15.042z"/>
</g>
<g>
	<path fill="#010101" d="M1.41,98.862c-0.6,0-1.11-0.21-1.11-1.14c0-3.21,6.571-7.471,14.642-10.741
		C10.441,93.221,5.341,98.862,1.41,98.862z M21.542,77.349c-0.63-0.54-1.02-1.32-1.02-2.52c0-6.601,10.951-10.231,19.142-11.071
		C35.074,65.018,27.033,70.329,21.542,77.349z M41.015,63.518c0-0.09-0.06-0.12-0.24-0.12c-6.601,0.36-20.972,2.73-20.972,10.801
		c0,1.59,0.6,2.7,1.56,3.39c-2.25,3-4.02,6.091-6.121,8.971C8.521,89.231,0,93.821,0,97.782c0,1.14,0.69,1.38,1.53,1.38
		c3.63,0,12.481-6.721,18.002-13.171c3.63-1.23,5.941-2.73,8.281-5.491c0.12-0.15-0.09-0.36-0.21-0.21
		c-2.13,2.52-4.26,4.02-7.711,5.281c1.2-1.32,2.79-3.69,4.83-7.261c4.35-0.36,8.341-4.38,8.341-6.811c0-0.33-0.15-0.54-0.39-0.54
		c-0.21,0-0.3,0.12-0.3,0.27c0,0.27,0.24,0.27,0.24,0.54c0,2.13-3.72,5.791-7.711,6.241c3.54-5.761,6.931-10.381,12.781-13.141
		c0.99-0.48,1.95-0.9,2.94-0.99C40.955,63.848,41.015,63.698,41.015,63.518z"/>
	<path fill="#010101" d="M31.384,86.5c2.22,0,5.971-4.29,7.411-6.001c0.12-0.15-0.09-0.36-0.21-0.21
		c-1.53,1.83-5.191,5.851-7.141,5.851c-0.33,0-0.48-0.09-0.48-0.42c0-0.36,0.24-0.81,1.14-1.89l5.281-6.361
		c0.12-0.15-0.06-0.27-0.93-0.27c-0.81,0-0.93,0.12-1.05,0.27l-0.39,0.48c0.06-0.66-0.18-0.99-0.93-0.99
		c-1.95,0-5.311,1.77-7.351,4.29c-0.96,1.14-1.56,2.52-1.56,3.66c0,0.84,0.3,1.59,1.23,1.59c1.5,0,3.36-1.8,4.441-3
		c-0.36,0.69-0.57,1.32-0.57,1.95C30.273,86.14,30.663,86.5,31.384,86.5z M25.893,85.69c0-0.63,0.39-1.2,2.16-3.39
		c2.28-2.76,4.35-5.041,6.031-5.041c0.45,0,0.6,0.15,0.6,0.51c0,0.6-0.42,1.11-1.08,1.92l-1.44,1.77
		c-1.44,1.83-4.05,4.741-5.731,4.741C26.013,86.2,25.893,85.99,25.893,85.69z"/>
	<path fill="#010101" d="M42.635,85.99c-0.12,0.15,0.03,0.27,0.9,0.27c0.81,0,0.93-0.12,1.05-0.27l3.15-3.96
		c2.46-3.12,4.2-4.741,5.461-4.741c0.36,0,0.54,0.15,0.54,0.51c0,0.96-1.68,2.37-2.28,2.97c-1.14,1.11-2.58,2.73-2.58,4.38
		c0,0.87,0.39,1.35,1.23,1.35c2.19,0,5.881-4.35,7.291-6.001c0.12-0.15-0.09-0.36-0.21-0.21c-1.5,1.77-5.101,5.851-6.991,5.851
		c-0.39,0-0.6-0.09-0.6-0.57c0-1.14,2.07-2.76,3-3.72c1.38-1.38,2.07-2.49,2.07-3.51c0-0.81-0.39-1.38-1.41-1.38
		c-0.78,0-1.98,0.48-4.17,2.97c0.27-0.6,0.33-1.11,0.33-1.59c0-0.78-0.33-1.38-1.23-1.38c-0.81,0-2.13,0.54-4.441,3.36
		c0.33-0.69,0.51-1.47,0.51-2.04c0-0.78-0.33-1.32-1.2-1.32c-1.17,0-2.34,0.78-4.471,3.33c-0.12,0.15,0.06,0.36,0.21,0.21
		c2.34-2.79,3.36-3.21,4.17-3.21c0.45,0,0.63,0.18,0.63,0.54c0,0.57-0.33,1.05-1.59,2.58l-4.531,5.581
		c-0.12,0.15,0.03,0.27,0.93,0.27c0.87,0,0.99-0.12,1.11-0.27l2.91-3.6c2.55-3.18,4.351-5.101,5.701-5.101
		c0.45,0,0.63,0.18,0.63,0.54c0,0.6-0.3,1.11-1.56,2.64L42.635,85.99z"/>
	<path fill="#010101" d="M62.947,77.259c0.24,0,0.36,0.09,0.36,0.33c0,1.14-2.13,2.76-4.921,3.87
		C60.817,78.459,61.957,77.259,62.947,77.259z M64.147,77.919c0-0.66-0.39-0.96-1.2-0.96c-2.01,0-4.62,1.89-6.091,3.72
		c-1.32,1.62-1.71,3.15-1.71,4.05c0,1.05,0.48,1.77,1.83,1.77c2.82,0,6.301-3.36,8.491-6.001c0.12-0.15-0.09-0.36-0.21-0.21
		c-1.86,2.25-5.491,5.851-8.041,5.851c-0.78,0-1.08-0.24-1.08-0.9c0-0.51,0.33-1.35,1.89-3.3
		C60.427,80.89,64.147,79.72,64.147,77.919z"/>
	<path fill="#010101" d="M69.758,81.97c0-2.13-1.41-3.15-1.26-4.771c1.41-1.29,2.13-1.98,2.13-2.52c0-0.15-0.06-0.3-0.3-0.3
		c-0.24,0-0.57,0.15-0.99,0.57c-0.51,0.51-0.93,1.26-1.11,2.1c-0.84,0.81-1.65,1.71-2.97,3.24c-0.12,0.15,0.09,0.36,0.21,0.21
		c0.81-0.99,1.74-2.04,2.67-2.94c-0.12,1.02,0.06,1.77,0.06,3.27c0,3-1.83,5.431-3.42,5.431c-0.45,0-0.72-0.18-0.72-0.54
		c0-0.75,1.02-0.84,1.02-1.86c0-0.45-0.33-0.84-0.87-0.84c-0.69,0-1.32,0.69-1.32,1.65c0,1.38,1.11,1.83,2.13,1.83
		c3.6,0,6.361-3.39,8.551-6.001c0.12-0.15-0.09-0.36-0.21-0.21c-3.06,3.66-4.71,5.041-6.721,5.641
		C68.408,85.21,69.758,83.62,69.758,81.97z"/>
	<path fill="#010101" d="M106.752,73.119c-0.54,0-0.69-0.06-0.69-0.18c0-0.09,0.12-0.15,0.39-0.15c0.39,0,0.93,0.06,1.41,0.27
		C107.562,73.089,107.112,73.119,106.752,73.119z M104.862,65.168c0,3.42-3.75,7.711-6.391,7.711c-1.05,0-1.56-0.51-1.56-1.56
		c0-3.15,3.21-6.031,7.801-7.231C104.802,64.358,104.862,64.778,104.862,65.168z M85.66,86.56c-4.171,0-8.131-2.79-8.131-7.561
		c0-6.031,5.911-9.601,11.281-9.601c3.33,0,7.411,1.41,7.411,5.101c0,4.741-5.761,8.041-9.991,8.041c-2.43,0-5.401-0.87-5.401-3.93
		c0-3.66,4.32-6.241,8.581-6.241c1.95,0,3.48,0.45,4.771,1.74c0.15,0.15,0.24,0,0.09-0.15c-1.56-1.74-3.72-2.19-5.911-2.19
		c-3.9,0-7.831,2.52-7.831,6.871c0,2.7,2.43,4.17,5.641,4.17c4.681,0,10.351-3.45,10.351-8.341c0-4.02-4.59-5.491-7.681-5.491
		c-6.961,0-11.611,4.621-11.611,10.081c0,4.711,3.96,7.801,8.491,7.801c7.051,0,13.952-5.521,18.122-11.941
		c3.3-5.071,6.031-8.731,10.291-10.261c0.66,0.54,1.05,1.26,1.05,2.31c0,2.7-3.15,5.401-6.871,6.031c-0.51-0.3-1.11-0.45-1.8-0.45
		c-0.57,0-0.75,0.18-0.75,0.39c0,0.36,0.48,0.42,1.02,0.42c0.48,0,1.02-0.03,1.5-0.09c0.42,0.3,0.72,0.78,0.72,1.47
		c0,2.82-5.521,5.431-5.521,9.901c0,1.47,0.72,2.07,1.71,2.07c2.19,0,4.981-3.24,7.441-6.211c0.12-0.15-0.09-0.36-0.21-0.21
		c-2.64,3.21-5.251,6.061-7.141,6.061c-0.69,0-1.14-0.39-1.14-1.14c0-2.94,5.671-6.001,5.671-9.361c0-1.14-0.42-2.07-1.17-2.61
		c3.63-0.42,7.501-2.13,7.501-5.611c0-1.41-0.51-2.43-1.5-3.15c0.87-0.27,1.8-0.45,2.76-0.54c0.24-0.03,0.33-0.12,0.33-0.24
		c0-0.18-0.15-0.24-0.39-0.18c-1.08,0.21-2.07,0.42-3.03,0.75c-1.17-0.75-2.94-1.05-5.191-1.05c-1.5,0-2.94,0.18-4.26,0.51
		c-0.45-0.9-1.35-1.38-2.76-1.38c-3.51,0-6.481,3.15-7.231,6.331c-0.09,0.36,0.09,0.45,0.18,0.06c0.48-2.16,3.09-6.121,7.051-6.121
		c1.38,0,2.1,0.45,2.49,1.17c-4.651,1.26-7.981,4.23-7.981,7.501c0,1.26,0.6,1.86,1.8,1.86c3.12,0,6.751-4.651,6.751-7.951
		c0-0.45-0.06-0.87-0.18-1.17c1.23-0.33,2.7-0.51,4.17-0.51c1.68,0,3.45,0.18,4.651,0.9c-5.041,1.65-9.301,4.741-12.781,8.941
		C96.731,78.459,93.821,86.56,85.66,86.56z"/>
	<path fill="#010101" d="M111.042,85.54c0-0.72,0.57-1.62,2.25-3.72c2.46-3,4.17-4.561,5.311-4.561c0.57,0,0.69,0.3,0.69,0.66
		c0,0.36-0.09,0.78-0.24,1.14c-1.23,0.21-1.98,1.68-1.89,2.88c-2.4,2.88-4.381,4.26-5.431,4.26
		C111.283,86.2,111.042,85.99,111.042,85.54z M110.412,84.7c0,0.9,0.3,1.8,1.35,1.8c1.41,0,3.84-1.68,5.641-3.72
		c0.3,0.42,0.72,0.54,1.14,0.54c1.2,0,2.22-1.14,3.6-2.82c0.12-0.15-0.09-0.36-0.21-0.21c-1.35,1.65-2.34,2.67-3.36,2.67
		c-0.36,0-0.69-0.15-0.75-0.66c1.29-1.53,1.92-2.91,1.92-4.14c0-0.57-0.15-1.2-1.29-1.2c-2.04,0-5.011,1.92-6.601,3.99
		C110.892,82.18,110.412,83.41,110.412,84.7z"/>
	<path fill="#010101" d="M135.465,66.608c0.3,0,0.42,0.12,0.42,0.39c0,1.68-4.531,5.521-8.551,8.611
		C131.625,69.698,133.965,66.608,135.465,66.608z M126.734,82.24c1.68-1.92,3-3.96,3-4.921c0-0.24-0.09-0.36-0.33-0.36
		c-1.08,0-3.3,2.97-3.3,4.651c0,0.09,0,0.24,0.03,0.33c-1.11,1.44-3.36,4.2-4.981,4.2c-0.48,0-0.6-0.21-0.6-0.54
		c0-0.63,0.3-1.08,1.59-2.88l4.53-6.211c4.561-3.6,9.961-6.901,9.961-9.361c0-0.57-0.27-0.93-0.87-0.93
		c-2.28,0-6.421,4.891-11.101,10.501c-2.88,3.45-4.741,6.181-4.741,8.431c0,0.69,0.24,1.35,1.11,1.35c1.32,0,3.48-1.77,5.311-3.81
		c0.21,0.48,0.69,0.78,1.32,0.78c1.14,0,2.34-0.96,3.99-2.97c0.12-0.15-0.09-0.36-0.21-0.21c-1.56,1.95-2.79,2.82-3.69,2.82
		C127.244,83.11,126.824,82.81,126.734,82.24z"/>
	<path fill="#010101" d="M137.205,77.259c0.24,0,0.36,0.09,0.36,0.33c0,1.14-2.13,2.76-4.921,3.87
		C135.075,78.459,136.215,77.259,137.205,77.259z M138.406,77.919c0-0.66-0.39-0.96-1.2-0.96c-2.01,0-4.621,1.89-6.091,3.72
		c-1.32,1.62-1.71,3.15-1.71,4.05c0,1.05,0.48,1.77,1.83,1.77c2.82,0,6.301-3.36,8.491-6.001c0.12-0.15-0.09-0.36-0.21-0.21
		c-1.86,2.25-5.491,5.851-8.041,5.851c-0.78,0-1.08-0.24-1.08-0.9c0-0.51,0.33-1.35,1.89-3.3
		C134.685,80.89,138.406,79.72,138.406,77.919z"/>
	<path fill="#010101" d="M142.906,75.459c0-0.24-0.12-0.36-0.33-0.36c-0.57,0-1.26,1.02-1.26,1.68c0,0.36,0.12,0.57,0.3,0.69
		c-0.66,1.05-1.35,1.95-2.1,2.82c-0.15,0.18,0.12,0.33,0.21,0.21c0.45-0.51,1.47-1.77,2.22-2.94c0.66,0,0.93-0.24,1.41-0.24
		c0.27,0,0.39,0.12,0.39,0.39c0,1.65-4.351,4.14-4.351,7.051c0,1.17,0.6,1.74,1.35,1.74c1.92,0,5.521-4.23,6.991-6.001
		c0.12-0.15-0.09-0.36-0.21-0.21c-1.56,1.89-5.071,5.851-6.661,5.851c-0.42,0-0.63-0.21-0.63-0.66c0-1.89,4.41-4.531,4.41-7.201
		c0-0.81-0.3-1.32-1.11-1.32c-0.54,0-0.78,0.24-1.35,0.24C142.606,76.569,142.906,75.909,142.906,75.459z"/>
	<path fill="#010101" d="M147.947,77.469c0,0.06,0.06,0.12,0.39,0.12h1.41l-2.94,3.6c-1.41,1.77-1.83,2.73-1.83,3.78
		c0,1.02,0.57,1.53,1.35,1.53c2.31,0,5.881-4.05,7.501-6.001c0.12-0.15-0.09-0.36-0.21-0.21c-1.59,1.92-5.131,5.851-7.201,5.851
		c-0.39,0-0.57-0.15-0.57-0.54c0-0.66,0.24-1.05,2.13-3.36l3.75-4.651c0.63,0,1.08,0.03,1.86,0.03c0.21,0,0.33-0.06,0.33-0.21
		c0-0.12-0.12-0.15-0.21-0.15c-0.63,0-1.08,0.03-1.71,0.03l3.27-4.05c0.15-0.21,0.09-0.42-0.18-0.39l-1.08,0.09
		c-0.42,0.03-0.63,0.15-0.84,0.42l-3.21,3.96h-1.56C148.037,77.319,147.947,77.379,147.947,77.469z"/>
	<path fill="#010101" d="M184.041,77.829c0.78-0.96,1.5-1.98,2.22-3.09c2.88-4.441,4.621-8.221,9.451-10.171
		c1.44-0.57,3-0.84,5.491-0.93c-4.501,3.27-7.591,6.241-10.801,10.021c-0.9,1.05-2.1,2.52-3.21,4.02
		C186.081,77.769,185.211,77.799,184.041,77.829z M167.449,86.5c-3.99,0-8.341-2.37-8.971-6.451c2.22,1.92,5.551,2.85,8.671,2.85
		c5.011,0,8.791-1.98,10.471-4.711h2.07C176.93,82.09,172.909,86.5,167.449,86.5z M170.809,69.759c4.981,0,7.441,2.19,7.441,5.191
		c0,1.02-0.33,2.04-0.93,2.94c-8.761,0-9.031-0.15-10.171-0.15c-0.36,0-0.51,0.12-0.51,0.3c0,0.15,0.15,0.21,0.36,0.21
		c1.32,0,1.53-0.06,10.111-0.06c-1.77,2.37-5.461,4.14-10.381,4.14c-3,0-6.211-0.87-8.281-2.7
		C158.028,74.349,163.998,69.759,170.809,69.759z M195.442,64.268c-6.421,2.43-11.101,6.901-14.912,12.691l-0.63,0.93h-2.1
		c0.48-0.87,0.75-1.86,0.75-2.88c0-3.36-2.76-5.851-8.491-5.851c-7.171,0-12.181,4.771-11.941,10.141c-1.2-1.2-1.92-2.64-1.92-4.56
		c0-4.651,5.311-8.761,13.111-8.761c6.151,0,10.231,2.61,12.571,6.721c0.09,0.15,0.24,0.09,0.15-0.09
		c-2.67-4.771-7.441-7.231-13.352-7.231c-7.951,0-12.781,4.381-12.781,9.241c0,2.16,0.87,3.84,2.28,5.191
		c0.51,4.591,5.101,6.991,9.451,6.991c6.061,0,11.551-2.97,16.202-8.701c1.05-0.03,2.1-0.06,3.18-0.15
		c-1.77,2.4-3.33,5.131-3.33,6.991c0,1.41,0.66,1.98,1.68,1.98c1.89,0,4.591-3.39,7.051-6.421c0.12-0.15-0.09-0.36-0.21-0.21
		c-2.61,3.15-5.161,6.271-6.811,6.271c-0.66,0-1.05-0.36-1.05-1.14c0-2.37,3.99-6.931,6.661-10.351
		c4.201-5.371,7.051-8.611,10.021-10.891c0.36-0.27,0.66-0.48,1.05-0.6c0.15-0.03,0.15-0.24,0.03-0.24
		C199.732,63.338,197.512,63.488,195.442,64.268z"/>
	<path fill="#010101" d="M192.322,86.5c2.73,0,6.151-3.63,8.131-6.001c0.12-0.15-0.09-0.36-0.21-0.21
		c-1.8,2.22-5.341,5.851-7.681,5.851c-0.87,0-1.29-0.3-1.29-1.05c0-0.72,0.33-1.47,2.22-3.78c2.43-2.94,3.51-4.05,4.681-4.05
		c0.24,0,0.36,0.06,0.36,0.27c0,0.6-1.68,0.69-1.68,1.8c0,0.42,0.3,0.66,0.69,0.66c0.84,0,1.62-0.9,1.62-1.98
		c0-0.81-0.39-1.05-1.05-1.05c-1.68,0-4.771,1.89-6.301,3.78c-0.96,1.17-1.5,2.43-1.5,3.57C190.311,85.69,191.001,86.5,192.322,86.5
		z"/>
	<path fill="#010101" d="M213.594,66.578c0.33,0,0.45,0.12,0.45,0.39c0,1.65-4.35,5.341-8.281,8.461
		C210.264,69.458,211.914,66.578,213.594,66.578z M195.652,85.99c-0.12,0.15,0.03,0.27,0.93,0.27c0.87,0,0.99-0.12,1.11-0.27
		l3.12-4.08c2.31-3,4.56-4.47,5.671-4.47c0.3,0,0.45,0.15,0.45,0.51c0,1.2-1.62,3-3.12,3.45c-0.33-0.12-0.72-0.18-1.23-0.18
		c-0.63,0-0.93,0.15-0.93,0.36c0,0.27,0.33,0.33,0.81,0.33c0.39,0,0.9-0.06,1.47-0.21c0.03,0.03,0.03,0.06,0.03,0.09
		c0,0.6-2.37,1.53-2.37,3.45c0,0.54,0.21,1.26,1.23,1.26c2.19,0,5.881-4.35,7.291-6.001c0.12-0.15-0.09-0.36-0.21-0.21
		c-1.5,1.77-5.101,5.851-6.991,5.851c-0.27,0-0.42-0.09-0.42-0.36c0-0.96,2.25-1.62,2.25-3.18c0-0.3-0.06-0.72-0.48-0.99
		c1.92-0.51,4.17-1.77,4.17-3.39c0-0.63-0.39-1.26-1.38-1.26c-1.26,0-2.91,1.02-4.41,2.55l2.37-3.12
		c4.501-3.6,9.781-6.811,9.781-9.241c0-0.57-0.3-0.93-0.99-0.93c-1.77,0-4.2,2.34-6.811,5.581L195.652,85.99z"/>
	<path fill="#010101" d="M223.255,66.578c0.3,0,0.42,0.12,0.42,0.39c0,1.62-4.23,5.191-8.101,8.191
		C219.655,69.548,221.875,66.578,223.255,66.578z M224.425,67.088c0-0.54-0.24-0.87-0.84-0.87c-2.31,0-6.541,4.951-11.011,10.501
		c-2.46,3.06-4.681,6.001-4.681,8.641c0,0.57,0.21,1.14,1.02,1.14c2.19,0,5.881-4.35,7.291-6.001c0.12-0.15-0.09-0.36-0.21-0.21
		c-1.5,1.77-5.101,5.851-6.991,5.851c-0.42,0-0.54-0.18-0.54-0.48c0-0.66,0.33-1.23,1.59-2.94l4.891-6.721
		C219.385,72.579,224.425,69.519,224.425,67.088z"/>
	<path fill="#010101" d="M221.815,72.999c0,0.51,0.3,0.75,0.75,0.75c0.81,0,1.38-0.72,1.38-1.35c0-0.51-0.3-0.75-0.75-0.75
		C222.385,71.649,221.815,72.369,221.815,72.999z M214.644,86.5c2.19,0,5.881-4.35,7.291-6.001c0.12-0.15-0.09-0.36-0.21-0.21
		c-1.5,1.77-5.101,5.851-6.991,5.851c-0.3,0-0.51-0.09-0.51-0.48c0-0.6,0.48-1.26,1.95-3.09l4.14-5.101
		c0.12-0.15-0.03-0.27-0.93-0.27c-0.87,0-0.99,0.12-1.11,0.27l-3.48,4.29c-0.9,1.11-1.38,2.28-1.38,3.3
		C213.414,85.9,213.774,86.5,214.644,86.5z"/>
	<path fill="#010101" d="M232.826,78.339c0-0.81-0.39-1.38-1.41-1.38c-0.87,0-2.16,0.6-4.56,3.42c0.33-0.66,0.54-1.5,0.54-2.1
		c0-0.78-0.33-1.32-1.2-1.32c-1.17,0-2.34,0.78-4.471,3.33c-0.12,0.15,0.06,0.36,0.21,0.21c2.34-2.79,3.36-3.21,4.17-3.21
		c0.45,0,0.63,0.18,0.63,0.54c0,0.57-0.33,1.05-1.59,2.58l-4.531,5.581c-0.12,0.15,0.03,0.27,0.93,0.27c0.87,0,0.99-0.12,1.11-0.27
		l3.12-3.84c2.34-2.91,4.2-4.861,5.581-4.861c0.36,0,0.54,0.15,0.54,0.51c0,0.96-1.68,2.37-2.28,2.97
		c-1.14,1.11-2.58,2.76-2.58,4.38c0,0.81,0.39,1.35,1.23,1.35c2.19,0,5.881-4.35,7.291-6.001c0.12-0.15-0.09-0.36-0.21-0.21
		c-1.5,1.77-5.101,5.851-6.991,5.851c-0.39,0-0.6-0.09-0.6-0.57c0-1.14,2.07-2.76,3-3.72
		C232.136,80.47,232.826,79.36,232.826,78.339z"/>
</g>
<path fill="#010101" d="M125.485,33.715c0.416,0,0.624,0.208,0.624,0.624c0,1.843-3.388,4.072-6.687,5.498
	C120.938,36.033,123.732,33.715,125.485,33.715z M113.746,54.132c-2.229,0-3.507-1.219-3.507-3.121c0-1.486,0.624-3.061,2.021-4.993
	c1.456-2.021,3.388-3.982,6.628-5.587c-0.535,1.516-0.832,3.299-0.832,5.231c0,2.764,0.535,4.963,1.575,6.419
	C117.758,53.3,115.678,54.132,113.746,54.132z M121.562,44.028c0.357-0.773,1.218-1.397,2.348-1.397
	c0.951,0,1.516,0.535,1.516,1.516c0,2.229-2.259,5.32-5.141,7.46c-1.07-1.456-1.783-3.685-1.783-6.687
	c0-1.724,0.327-3.329,0.773-4.696c3.834-1.724,7.579-3.923,7.579-5.944c0-0.565-0.357-0.921-1.1-0.921
	c-2.051,0-5.171,2.378-6.746,6.657c-4.22,1.753-9.986,2.972-9.986,8.946c0,2.764,1.04,5.468,4.815,5.468
	c1.932,0,4.072-0.832,5.974-2.11c0.921,1.248,2.259,1.902,3.893,1.902c2.794,0,4.428-1.545,4.428-3.418
	c0-0.267-0.297-0.238-0.297,0.03c0,1.635-1.516,3.002-3.566,3.002c-1.367,0-2.794-0.684-3.804-1.991
	c2.972-2.199,5.26-5.379,5.26-7.757c0-1.07-0.654-1.724-1.813-1.724c-1.575,0-2.913,1.219-2.913,2.586
	c0,0.505,0.268,0.921,0.802,0.921c0.862,0,1.545-0.862,1.545-1.635c0-0.476-0.267-0.773-0.713-0.773
	C122.246,43.463,121.86,43.671,121.562,44.028z"/>
</svg>
